<svg xmlns="http://www.w3.org/2000/svg" xmlns:xlink="http://www.w3.org/1999/xlink" width="500" zoomAndPan="magnify" viewBox="0 0 375 374.999991" height="500" preserveAspectRatio="xMidYMid meet" version="1.0"><defs><filter x="0%" y="0%" width="100%" height="100%" id="5abbd30fe6"><feColorMatrix values="0 0 0 0 1 0 0 0 0 1 0 0 0 0 1 0 0 0 1 0" color-interpolation-filters="sRGB"/></filter><clipPath id="171e11f002"><path d="M 171.636719 37.953125 L 342 37.953125 L 342 113.410156 L 171.636719 113.410156 Z M 171.636719 37.953125 " clip-rule="nonzero"/></clipPath><clipPath id="cc51666385"><path d="M 209.363281 37.953125 L 304.417969 37.953125 C 325.253906 37.953125 342.144531 54.84375 342.144531 75.679688 C 342.144531 96.519531 325.253906 113.410156 304.417969 113.410156 L 209.363281 113.410156 C 188.527344 113.410156 171.636719 96.519531 171.636719 75.679688 C 171.636719 54.84375 188.527344 37.953125 209.363281 37.953125 Z M 209.363281 37.953125 " clip-rule="nonzero"/></clipPath><clipPath id="d3f447cd0f"><path d="M 171.648438 37.953125 L 341.886719 37.953125 L 341.886719 113.703125 L 171.648438 113.703125 Z M 171.648438 37.953125 " clip-rule="nonzero"/></clipPath><clipPath id="3a6bd924d3"><path d="M 209.371094 37.953125 L 304.410156 37.953125 C 325.242188 37.953125 342.132812 54.84375 342.132812 75.675781 C 342.132812 96.511719 325.242188 113.398438 304.410156 113.398438 L 209.371094 113.398438 C 188.535156 113.398438 171.648438 96.511719 171.648438 75.675781 C 171.648438 54.84375 188.535156 37.953125 209.371094 37.953125 Z M 209.371094 37.953125 " clip-rule="nonzero"/></clipPath><mask id="55e57c5157"><g filter="url(#5abbd30fe6)"><rect x="-37.5" width="450" fill="#000000" y="-37.499999" height="449.999989" fill-opacity="0.2"/></g></mask><clipPath id="d234c78f4c"><path d="M 0.871094 0.871094 L 375 0.871094 L 375 375 L 0.871094 375 Z M 0.871094 0.871094 " clip-rule="nonzero"/></clipPath><clipPath id="51930a3257"><path d="M 187.933594 0.871094 C 84.621094 0.871094 0.871094 84.621094 0.871094 187.933594 C 0.871094 291.25 84.621094 375 187.933594 375 C 291.25 375 375 291.25 375 187.933594 C 375 84.621094 291.25 0.871094 187.933594 0.871094 Z M 187.933594 0.871094 " clip-rule="nonzero"/></clipPath><clipPath id="922e90f8c9"><rect x="0" width="375" y="0" height="375"/></clipPath></defs><rect x="-37.5" width="450" fill="#ffffff" y="-37.499999" height="449.999989" fill-opacity="1"/><rect x="-37.5" width="450" fill="#ffffff" y="-37.499999" height="449.999989" fill-opacity="1"/><g clip-path="url(#171e11f002)"><g clip-path="url(#cc51666385)"><path fill="#ffffff" d="M 171.636719 37.953125 L 342 37.953125 L 342 113.410156 L 171.636719 113.410156 Z M 171.636719 37.953125 " fill-opacity="1" fill-rule="nonzero"/></g></g><g clip-path="url(#d3f447cd0f)"><g clip-path="url(#3a6bd924d3)"><path stroke-linecap="butt" transform="matrix(0.75, 0, 0, 0.75, 171.646678, 37.954055)" fill="none" stroke-linejoin="miter" d="M 50.299227 -0.00124025 L 177.017994 -0.00124025 C 204.794039 -0.00124025 227.314875 22.519596 227.314875 50.295641 C 227.314875 78.076895 204.794039 100.592523 177.017994 100.592523 L 50.299227 100.592523 C 22.517974 100.592523 0.00234596 78.076895 0.00234596 50.295641 C 0.00234596 22.519596 22.517974 -0.00124025 50.299227 -0.00124025 Z M 50.299227 -0.00124025 " stroke="#ffffff" stroke-width="94" stroke-opacity="1" stroke-miterlimit="4"/></g></g><g mask="url(#55e57c5157)"><g><g clip-path="url(#922e90f8c9)"><g clip-path="url(#d234c78f4c)"><g clip-path="url(#51930a3257)"><path fill="#c23331" d="M 0.871094 0.871094 L 375 0.871094 L 375 375 L 0.871094 375 Z M 0.871094 0.871094 " fill-opacity="1" fill-rule="nonzero"/></g></g></g></g></g><path fill="#c23331" d="M 92.488281 171.824219 L 92.488281 207.804688 C 92.488281 219.988281 102.363281 229.855469 114.535156 229.855469 L 193.960938 229.855469 C 206.144531 229.855469 216.011719 219.980469 216.011719 207.804688 L 216.011719 171.824219 Z M 189.21875 208.457031 L 162.675781 208.457031 C 158.929688 208.457031 155.886719 205.417969 155.886719 201.671875 C 155.886719 197.925781 158.929688 194.882812 162.675781 194.882812 L 189.21875 194.882812 C 192.964844 194.882812 196.003906 197.925781 196.003906 201.671875 C 196.003906 205.417969 192.964844 208.457031 189.21875 208.457031 Z M 189.21875 208.457031 " fill-opacity="1" fill-rule="nonzero"/><path fill="#c23331" d="M 180.753906 91.890625 C 184.113281 93.550781 185.484375 97.625 183.816406 100.984375 L 179.859375 108.964844 L 187.839844 112.929688 C 191.199219 114.597656 192.570312 118.664062 190.898438 122.023438 C 189.238281 125.382812 185.160156 126.753906 181.804688 125.082031 L 166.203125 117.339844 C 163.699219 116.097656 162.679688 113.0625 163.921875 110.558594 L 171.667969 94.949219 C 173.328125 91.589844 177.402344 90.21875 180.761719 91.890625 Z M 180.753906 91.890625 " fill-opacity="1" fill-rule="nonzero"/><path fill="#c23331" d="M 198.378906 236.640625 L 110.140625 236.640625 C 96.667969 236.640625 85.699219 225.679688 85.699219 212.203125 L 85.699219 159.253906 C 85.699219 145.78125 96.660156 134.816406 110.140625 134.816406 L 198.378906 134.816406 C 211.851562 134.816406 222.816406 145.777344 222.816406 159.253906 L 222.816406 212.203125 C 222.816406 225.675781 211.855469 236.640625 198.378906 236.640625 Z M 110.140625 148.394531 C 104.148438 148.394531 99.273438 153.269531 99.273438 159.261719 L 99.273438 212.210938 C 99.273438 218.195312 104.148438 223.074219 110.140625 223.074219 L 198.378906 223.074219 C 204.371094 223.074219 209.246094 218.203125 209.246094 212.210938 L 209.246094 159.261719 C 209.246094 153.273438 204.371094 148.394531 198.378906 148.394531 Z M 110.140625 148.394531 " fill-opacity="1" fill-rule="nonzero"/><path fill="#c23331" d="M 92.472656 165.035156 L 216.015625 165.035156 L 216.015625 178.609375 L 92.472656 178.609375 Z M 92.472656 165.035156 " fill-opacity="1" fill-rule="nonzero"/><path fill="#c23331" d="M 201.074219 275.726562 C 177.769531 275.726562 155.792969 266.71875 139.179688 250.378906 C 133.058594 244.34375 127.851562 237.484375 123.726562 229.96875 L 135.617188 223.429688 C 139.117188 229.789062 143.515625 235.597656 148.699219 240.707031 C 162.757812 254.539062 181.359375 262.160156 201.078125 262.160156 C 242.242188 262.160156 275.734375 228.667969 275.734375 187.507812 C 275.734375 146.347656 242.242188 112.855469 201.078125 112.855469 C 193.199219 112.855469 185.445312 114.074219 178.039062 116.476562 L 173.851562 103.570312 C 182.613281 100.726562 191.777344 99.289062 201.078125 99.289062 C 249.726562 99.289062 289.304688 138.867188 289.304688 187.511719 C 289.304688 236.160156 249.726562 275.738281 201.078125 275.738281 Z M 201.074219 275.726562 " fill-opacity="1" fill-rule="nonzero"/></svg>