<svg xmlns="http://www.w3.org/2000/svg" xmlns:xlink="http://www.w3.org/1999/xlink" width="500" zoomAndPan="magnify" viewBox="0 0 375 374.999991" height="500" preserveAspectRatio="xMidYMid meet" version="1.0"><defs><filter x="0%" y="0%" width="100%" height="100%" id="872df2d4d9"><feColorMatrix values="0 0 0 0 1 0 0 0 0 1 0 0 0 0 1 0 0 0 1 0" color-interpolation-filters="sRGB"/></filter><clipPath id="37721ee619"><path d="M 171.636719 37.953125 L 342 37.953125 L 342 113.410156 L 171.636719 113.410156 Z M 171.636719 37.953125 " clip-rule="nonzero"/></clipPath><clipPath id="c1220efc22"><path d="M 209.363281 37.953125 L 304.417969 37.953125 C 325.253906 37.953125 342.144531 54.84375 342.144531 75.679688 C 342.144531 96.519531 325.253906 113.410156 304.417969 113.410156 L 209.363281 113.410156 C 188.527344 113.410156 171.636719 96.519531 171.636719 75.679688 C 171.636719 54.84375 188.527344 37.953125 209.363281 37.953125 Z M 209.363281 37.953125 " clip-rule="nonzero"/></clipPath><clipPath id="036142bddf"><path d="M 171.648438 37.953125 L 341.886719 37.953125 L 341.886719 113.703125 L 171.648438 113.703125 Z M 171.648438 37.953125 " clip-rule="nonzero"/></clipPath><clipPath id="c758b01a64"><path d="M 209.371094 37.953125 L 304.410156 37.953125 C 325.242188 37.953125 342.132812 54.84375 342.132812 75.675781 C 342.132812 96.511719 325.242188 113.398438 304.410156 113.398438 L 209.371094 113.398438 C 188.535156 113.398438 171.648438 96.511719 171.648438 75.675781 C 171.648438 54.84375 188.535156 37.953125 209.371094 37.953125 Z M 209.371094 37.953125 " clip-rule="nonzero"/></clipPath><mask id="63bfe75434"><g filter="url(#872df2d4d9)"><rect x="-37.5" width="450" fill="#000000" y="-37.499999" height="449.999989" fill-opacity="0.2"/></g></mask><clipPath id="6159449e1d"><path d="M 0.871094 0.871094 L 375 0.871094 L 375 375 L 0.871094 375 Z M 0.871094 0.871094 " clip-rule="nonzero"/></clipPath><clipPath id="3deb7d57c8"><path d="M 187.933594 0.871094 C 84.621094 0.871094 0.871094 84.621094 0.871094 187.933594 C 0.871094 291.25 84.621094 375 187.933594 375 C 291.25 375 375 291.25 375 187.933594 C 375 84.621094 291.25 0.871094 187.933594 0.871094 Z M 187.933594 0.871094 " clip-rule="nonzero"/></clipPath><clipPath id="fce885b6db"><rect x="0" width="375" y="0" height="375"/></clipPath><clipPath id="ca3197e93f"><path d="M 68 64.71875 L 314 64.71875 L 314 268.71875 L 68 268.71875 Z M 68 64.71875 " clip-rule="nonzero"/></clipPath></defs><rect x="-37.5" width="450" fill="#ffffff" y="-37.499999" height="449.999989" fill-opacity="1"/><rect x="-37.5" width="450" fill="#ffffff" y="-37.499999" height="449.999989" fill-opacity="1"/><g clip-path="url(#37721ee619)"><g clip-path="url(#c1220efc22)"><path fill="#ffffff" d="M 171.636719 37.953125 L 342 37.953125 L 342 113.410156 L 171.636719 113.410156 Z M 171.636719 37.953125 " fill-opacity="1" fill-rule="nonzero"/></g></g><g clip-path="url(#036142bddf)"><g clip-path="url(#c758b01a64)"><path stroke-linecap="butt" transform="matrix(0.75, 0, 0, 0.75, 171.646678, 37.954055)" fill="none" stroke-linejoin="miter" d="M 50.299227 -0.00124025 L 177.017994 -0.00124025 C 204.794039 -0.00124025 227.314875 22.519596 227.314875 50.295641 C 227.314875 78.076895 204.794039 100.592523 177.017994 100.592523 L 50.299227 100.592523 C 22.517974 100.592523 0.00234596 78.076895 0.00234596 50.295641 C 0.00234596 22.519596 22.517974 -0.00124025 50.299227 -0.00124025 Z M 50.299227 -0.00124025 " stroke="#ffffff" stroke-width="94" stroke-opacity="1" stroke-miterlimit="4"/></g></g><g mask="url(#63bfe75434)"><g><g clip-path="url(#fce885b6db)"><g clip-path="url(#6159449e1d)"><g clip-path="url(#3deb7d57c8)"><path fill="#ffbd59" d="M 0.871094 0.871094 L 375 0.871094 L 375 375 L 0.871094 375 Z M 0.871094 0.871094 " fill-opacity="1" fill-rule="nonzero"/></g></g></g></g></g><path fill="#fff2de" d="M 189.804688 99.8125 L 275.59375 243.722656 L 105.628906 244.273438 Z M 189.804688 99.8125 " fill-opacity="1" fill-rule="nonzero"/><g clip-path="url(#ca3197e93f)"><path fill="#ffbd59" d="M 190.316406 64.992188 C 186.121094 64.71875 181.835938 66.699219 179.148438 70.257812 L 68.589844 256.003906 C 67.839844 258.8125 67.8125 260.601562 68.480469 263.242188 C 69.113281 265.769531 71.601562 268.375 73.980469 269.003906 L 304.230469 269.074219 C 305.667969 268.8125 307.65625 268.136719 308.628906 267.570312 C 312.175781 265.515625 314.574219 260.039062 312.058594 255.878906 L 200.132812 70.601562 C 198.5 67.894531 195.203125 65.945312 192.109375 65.25 C 191.519531 65.121094 190.917969 65.027344 190.316406 64.988281 Z M 189.804688 99.8125 L 275.59375 243.722656 L 105.628906 244.273438 Z M 189.804688 99.8125 " fill-opacity="1" fill-rule="nonzero"/></g><path fill="#ffbd59" d="M 186.746094 234.355469 C 182.863281 232.496094 179.910156 228.023438 179.910156 224.011719 C 179.910156 216.539062 187.710938 210.914062 195.09375 213.058594 C 200.074219 214.507812 203.460938 219.003906 203.417969 224.117188 C 203.382812 228.460938 201.503906 231.660156 197.667969 233.90625 C 194.734375 235.628906 189.820312 235.828125 186.746094 234.355469 Z M 187.628906 204.855469 C 187.144531 204.589844 186 203.660156 185.089844 202.792969 C 181.90625 199.757812 181.910156 199.785156 179.832031 167.316406 C 177.988281 138.457031 177.972656 138.007812 178.765625 135.9375 C 180.546875 131.273438 184.515625 129.230469 191.121094 129.574219 C 195.324219 129.796875 198.558594 131.273438 200.660156 133.925781 C 202.457031 136.195312 202.847656 137.476562 202.847656 141.101562 C 202.84375 145.039062 200.332031 193.316406 199.972656 196.277344 C 199.503906 200.152344 197.242188 203.296875 193.929688 204.683594 C 192.035156 205.472656 188.910156 205.558594 187.628906 204.855469 Z M 187.628906 204.855469 " fill-opacity="1" fill-rule="nonzero"/></svg>